<svg xmlns="http://www.w3.org/2000/svg" version="1.1" xmlns:xlink="http://www.w3.org/1999/xlink" width="200" height="200"><svg xmlns="http://www.w3.org/2000/svg" version="1.1" xmlns:xlink="http://www.w3.org/1999/xlink" viewBox="0 0 200 200"><rect width="200" height="200" fill="url('#gradient')"></rect><defs><linearGradient id="SvgjsLinearGradient1006" gradientTransform="rotate(45 0.5 0.5)"><stop offset="0%" stop-color="#0cdee8"></stop><stop offset="100%" stop-color="#f7ff59"></stop></linearGradient></defs><g><g fill="#1b3855" transform="matrix(7.780498100464331,0,0,7.780498100464331,3.0152670015459506,159.168227245859)" stroke="#3aa1dd" stroke-width="0"><path d="M4.39-10.57L4.39 0L1.09 0L1.09-10.57L4.39-10.57ZM0.90-13.29L0.90-13.29Q0.90-13.99 1.41-14.44Q1.91-14.89 2.72-14.89Q3.54-14.89 4.04-14.44Q4.55-13.99 4.55-13.29Q4.55-12.59 4.04-12.14Q3.54-11.69 2.72-11.69Q1.91-11.69 1.41-12.14Q0.90-12.59 0.90-13.29ZM6.36-10.57L9.44-10.57L9.55-9.33Q10.64-10.76 12.57-10.76L12.57-10.76Q14.22-10.76 15.03-9.78Q15.85-8.79 15.88-6.81L15.88-6.81L15.88 0L12.58 0L12.58-6.67Q12.58-7.47 12.26-7.85Q11.93-8.22 11.08-8.22L11.08-8.22Q10.12-8.22 9.65-7.46L9.65-7.46L9.65 0L6.36 0L6.36-10.57ZM21.73 0L18.43 0L18.43-8.28L16.89-8.28L16.89-10.57L18.43-10.57L18.43-11.41Q18.43-13.21 19.49-14.21Q20.56-15.21 22.48-15.21L22.48-15.21Q23.18-15.21 24.02-15L24.02-15L24.03-12.58Q23.73-12.67 23.22-12.67L23.22-12.67Q21.73-12.67 21.73-11.38L21.73-11.38L21.73-10.57L23.79-10.57L23.79-8.28L21.73-8.28L21.73 0Z"></path></g></g></svg><style>@media (prefers-color-scheme: light) { :root { filter: contrast(1) brightness(1); } }
@media (prefers-color-scheme: dark) { :root { filter: none; } }
</style></svg>